<?xml version="1.0" standalone="no"?>
<!DOCTYPE svg PUBLIC "-//W3C//DTD SVG 20010904//EN"
 "http://www.w3.org/TR/2001/REC-SVG-20010904/DTD/svg10.dtd">
<svg version="1.0" xmlns="http://www.w3.org/2000/svg"
 width="1680.000000pt" height="841.000000pt" viewBox="0 0 1680.000000 841.000000"
 preserveAspectRatio="xMidYMid meet">

<g transform="translate(0.000000,841.000000) scale(0.100000,-0.100000)"
fill="#000000" stroke="none">
<path d="M11940 8229 c-264 -14 -526 -51 -814 -115 -526 -117 -996 -331 -1271
-578 -291 -262 -417 -614 -339 -951 45 -194 148 -360 352 -562 151 -149 175
-189 174 -287 0 -118 -34 -202 -212 -516 -235 -416 -313 -578 -396 -826 -48
-146 -55 -212 -28 -270 37 -77 132 -104 214 -62 36 18 69 54 160 174 132 174
156 201 294 342 288 295 634 499 1047 617 68 19 126 32 130 27 4 -4 12 -25 19
-47 18 -57 76 -170 123 -239 136 -201 360 -386 649 -536 286 -148 572 -246
923 -314 303 -59 473 -74 940 -86 458 -12 592 -27 860 -95 190 -49 321 -97
490 -180 383 -187 685 -449 974 -841 76 -104 114 -138 171 -154 63 -18 144 19
175 80 26 51 18 124 -29 266 -83 246 -180 450 -383 804 -181 316 -227 426
-226 540 1 99 26 142 165 278 146 143 223 243 288 376 70 142 92 231 93 386 1
141 -19 236 -78 366 -99 219 -323 447 -606 620 -240 146 -589 282 -920 358
l-117 27 -11 76 c-62 414 -383 749 -951 993 -403 173 -962 300 -1430 325 -217
11 -279 12 -430 4z m480 -129 c904 -78 1676 -373 2000 -764 106 -127 189 -302
207 -433 7 -50 16 -48 -120 -28 -373 56 -858 60 -1247 9 -158 -20 -363 -59
-498 -93 l-113 -29 -127 57 c-517 235 -1098 391 -1708 461 -243 27 -588 43
-801 37 l-182 -5 37 45 c157 190 519 410 877 533 331 114 641 174 1100 213 93
8 469 6 575 -3z m-1900 -920 c408 -29 789 -93 1166 -195 304 -83 808 -269 764
-283 -122 -38 -392 -162 -536 -247 -193 -114 -402 -296 -503 -438 l-53 -74
-142 67 c-576 275 -1095 617 -1474 971 l-73 69 31 64 32 65 57 4 c131 8 597 6
731 -3z m-630 -496 c353 -285 746 -531 1204 -755 l204 -100 -23 -60 c-37 -94
-56 -195 -58 -313 l-2 -108 -121 -34 c-167 -45 -296 -94 -454 -173 -387 -193
-679 -451 -997 -880 -61 -82 -96 -109 -118 -91 -23 19 -19 46 26 181 76 232
163 414 357 755 248 434 296 567 258 713 -24 94 -55 138 -192 273 -69 68 -148
152 -175 188 -64 84 -144 246 -164 333 -15 67 -21 250 -9 281 4 12 28 -4 97
-67 51 -45 126 -110 167 -143z m4406 91 c127 -13 335 -42 340 -48 5 -5 -18
-127 -33 -172 -76 -237 -293 -479 -584 -655 l-83 -49 -102 98 c-253 245 -554
466 -895 661 l-120 68 73 16 c187 43 520 87 753 100 126 7 505 -4 651 -19z
m789 -152 c318 -97 596 -230 814 -390 97 -71 264 -240 316 -318 177 -268 196
-536 58 -810 -17 -33 -39 -70 -49 -83 l-19 -22 -355 10 c-469 13 -661 25
-1125 71 l-220 22 -85 134 c-95 150 -195 286 -303 413 -40 47 -76 90 -80 97
-5 8 22 31 80 69 361 232 585 523 635 825 l10 66 102 -23 c55 -13 155 -41 221
-61z m-2320 -62 c363 -190 653 -397 995 -710 l65 -60 -75 -34 c-259 -118 -608
-218 -939 -267 -120 -18 -152 -20 -185 -10 -158 45 -460 143 -611 197 -210 76
-514 198 -528 212 -6 6 8 32 39 72 204 266 547 478 1054 652 25 8 47 16 49 16
2 1 64 -30 136 -68z m1206 -933 c100 -114 206 -251 288 -373 44 -65 79 -121
77 -122 -5 -5 -332 44 -521 77 -362 65 -834 169 -813 181 7 3 60 17 118 29
218 46 500 139 681 224 52 25 99 45 105 45 6 1 35 -27 65 -61z m-1022 -362
c436 -109 832 -186 1291 -251 102 -15 186 -27 186 -28 9 -11 91 -184 122 -257
82 -194 169 -487 188 -637 8 -62 18 -60 -131 -33 -188 35 -369 50 -690 60
-440 14 -660 33 -905 81 -810 158 -1412 520 -1605 964 -19 43 -32 81 -30 84
20 20 355 50 690 62 170 6 353 14 405 18 167 14 174 13 479 -63z m1844 -316
c334 -34 969 -69 1252 -70 l70 0 -121 -118 c-88 -85 -128 -132 -147 -172 -87
-180 -50 -317 211 -771 204 -357 296 -549 373 -782 45 -136 47 -180 11 -185
-32 -5 -50 13 -150 148 -181 243 -366 435 -572 589 -240 181 -437 279 -810
405 l-34 12 -18 109 c-37 225 -115 478 -219 713 -32 73 -59 135 -59 138 0 6 3
6 213 -16z"/>
<path d="M10607 3844 c-11 -12 -8 -388 4 -444 14 -64 61 -127 119 -160 l45
-25 338 -3 339 -3 -4 223 c-3 200 -6 228 -24 268 -27 57 -67 97 -124 124 -42
20 -64 21 -365 24 -176 2 -324 0 -328 -4z"/>
<path d="M13672 2448 c3 -1256 4 -1315 22 -1356 23 -52 92 -115 144 -130 27
-8 143 -12 361 -12 l321 0 -2 1312 c-3 1240 -4 1315 -21 1353 -24 53 -72 103
-122 126 -36 17 -70 19 -373 19 l-332 0 2 -1312z"/>
<path d="M4932 3173 c-24 -8 -42 -17 -40 -19 7 -6 148 18 143 26 -7 12 -58 8
-103 -7z"/>
<path d="M4850 3150 c-8 -5 -17 -7 -21 -4 -4 2 -10 0 -14 -6 -7 -11 7 -12 45
-1 14 4 20 10 14 13 -5 4 -16 3 -24 -2z"/>
<path d="M4755 3120 c-7 -12 2 -12 30 0 19 8 19 9 -2 9 -12 1 -25 -3 -28 -9z"/>
<path d="M5135 3091 c-324 -32 -574 -143 -714 -316 -93 -114 -134 -238 -134
-400 1 -288 153 -474 478 -583 109 -36 296 -74 505 -102 171 -23 230 -36 275
-58 116 -56 96 -148 -40 -188 -83 -25 -323 -25 -414 -1 -90 24 -156 63 -204
120 -68 82 -71 82 -340 47 -128 -17 -245 -33 -260 -36 -35 -7 -61 -46 -60 -89
2 -86 139 -268 270 -362 188 -134 485 -202 826 -190 496 18 837 177 967 452
47 100 63 173 62 295 0 251 -121 442 -346 549 -119 57 -276 90 -664 141 -256
33 -311 50 -338 102 -33 63 8 105 128 133 83 19 173 19 259 1 83 -18 129 -41
197 -100 29 -25 67 -48 85 -51 47 -9 465 70 497 94 34 25 46 71 31 122 -15 51
-116 168 -195 226 -118 88 -301 159 -467 182 -108 15 -312 21 -404 12z"/>
<path d="M7361 3088 c-624 -49 -1045 -518 -1018 -1135 11 -265 104 -493 274
-674 120 -128 289 -235 453 -288 254 -81 559 -80 814 4 137 44 277 117 343
177 l22 21 -44 57 c-80 104 -190 197 -289 245 -50 24 -118 51 -151 59 -78 20
-220 36 -319 36 -97 0 -268 25 -361 52 -38 11 -112 41 -164 66 -219 106 -307
273 -228 434 52 107 207 212 392 266 488 144 1108 -30 1174 -330 20 -90 -10
-173 -98 -270 -32 -35 -61 -71 -64 -82 -12 -31 12 -96 79 -217 36 -64 73 -139
84 -165 10 -27 23 -62 29 -78 l12 -29 30 29 c74 70 149 184 204 309 l32 74 33
-82 c161 -397 521 -637 955 -637 202 0 365 35 530 115 192 93 316 217 412 412
63 128 72 173 46 222 -36 68 -44 71 -337 97 -330 30 -314 34 -344 -91 -12 -48
-32 -107 -44 -132 -61 -121 -198 -164 -314 -97 -67 38 -108 116 -135 254 -15
82 -15 471 0 560 36 215 114 312 250 311 133 0 211 -80 247 -251 18 -90 28
-108 59 -116 36 -9 524 35 562 51 40 17 73 68 73 113 0 71 -102 267 -196 377
-278 325 -813 433 -1237 250 -233 -101 -435 -309 -523 -540 -16 -41 -32 -75
-36 -75 -3 0 -14 22 -22 48 -9 26 -36 83 -61 126 -210 368 -628 563 -1124 524z"/>
<path d="M4645 3070 c-3 -6 1 -7 9 -4 18 7 21 14 7 14 -6 0 -13 -4 -16 -10z"/>
<path d="M12388 3065 c-161 -20 -223 -57 -271 -164 -14 -33 -18 -60 -15 -111
6 -119 83 -208 199 -232 50 -10 69 -9 158 11 152 35 214 21 289 -64 41 -46 62
-104 62 -168 l0 -34 -127 -7 c-327 -17 -636 -87 -835 -187 -131 -66 -252 -169
-312 -266 -31 -50 -75 -177 -78 -225 -1 -18 -5 255 -8 607 -5 624 -6 641 -26
685 -27 57 -67 97 -124 124 -43 20 -61 21 -370 21 l-325 0 0 -955 c0 -901 1
-958 18 -1002 22 -57 89 -119 145 -136 27 -8 143 -12 361 -12 l321 0 1 258 c1
237 2 252 14 197 38 -173 158 -326 322 -408 28 -15 91 -39 140 -54 80 -24 102
-26 253 -26 235 0 298 19 522 154 54 33 99 59 101 59 2 0 7 -20 10 -45 9 -62
30 -100 65 -114 20 -9 105 -11 294 -9 l265 3 49 30 c30 19 60 49 79 79 l30 49
0 681 c0 629 -1 686 -18 746 -54 193 -167 331 -338 414 -169 81 -351 117 -594
115 -82 -1 -198 -7 -257 -14z m424 -1321 l-3 -179 -57 -54 c-80 -75 -144 -103
-236 -103 -117 1 -181 36 -212 119 -19 50 -15 124 11 173 38 74 131 141 247
178 71 23 218 52 243 47 5 -1 8 -72 7 -181z"/>
<path d="M4349 2843 c-13 -16 -12 -17 4 -4 9 7 17 15 17 17 0 8 -8 3 -21 -13z"/>
<path d="M6496 673 c-7 -35 -66 -389 -66 -397 0 -10 156 -7 209 5 58 12 120
71 142 135 22 64 17 153 -12 204 -35 62 -74 80 -181 80 -86 0 -86 0 -92 -27z
m199 -39 c83 -54 61 -245 -35 -295 -49 -26 -170 -27 -170 -1 0 9 11 82 25 162
14 80 25 146 25 148 0 1 29 2 65 2 43 0 74 -5 90 -16z"/>
<path d="M6907 693 c-4 -3 -7 -17 -7 -30 0 -19 5 -23 30 -23 19 0 30 5 30 14
0 8 3 21 6 30 5 12 -1 16 -23 16 -16 0 -33 -3 -36 -7z"/>
<path d="M8187 693 c-4 -3 -7 -17 -7 -30 0 -19 5 -23 30 -23 19 0 30 5 30 14
0 8 3 21 6 30 5 12 -1 16 -23 16 -16 0 -33 -3 -36 -7z"/>
<path d="M8536 683 c-3 -10 -8 -40 -12 -68 -9 -66 -10 -68 -39 -39 -28 28 -80
32 -125 9 -69 -35 -110 -177 -77 -258 31 -73 126 -83 178 -19 l22 27 -6 -32
c-6 -28 -4 -33 13 -33 12 0 22 9 25 23 7 33 65 383 65 396 0 18 -38 12 -44 -6z
m-67 -140 c47 -39 34 -152 -24 -210 -38 -38 -69 -42 -102 -11 -19 17 -23 32
-23 77 0 62 27 133 57 150 27 16 68 13 92 -6z"/>
<path d="M9226 683 c-3 -10 -8 -40 -12 -68 -9 -66 -10 -68 -39 -39 -28 28 -80
32 -125 9 -69 -35 -110 -177 -77 -258 31 -73 126 -83 178 -19 l22 27 -6 -32
c-6 -28 -4 -33 13 -33 12 0 22 9 25 23 7 33 65 383 65 396 0 18 -38 12 -44 -6z
m-67 -140 c47 -39 34 -152 -24 -210 -38 -38 -69 -42 -102 -11 -19 17 -23 32
-23 77 0 62 27 133 57 150 27 16 68 13 92 -6z"/>
<path d="M11521 633 c-46 -275 -58 -359 -54 -363 5 -5 29 25 36 44 2 6 15 -1
29 -15 60 -64 152 -39 199 53 57 112 17 248 -73 248 -33 0 -88 -25 -88 -40 0
-6 -4 -10 -9 -10 -8 0 -5 20 13 123 5 23 2 27 -18 27 -22 0 -25 -6 -35 -67z
m163 -89 c50 -49 21 -196 -45 -233 -52 -29 -109 16 -109 85 0 112 97 205 154
148z"/>
<path d="M11870 669 c0 -27 3 -30 28 -27 21 2 28 9 30 31 3 24 0 27 -27 27
-28 0 -31 -3 -31 -31z"/>
<path d="M12547 693 c-4 -3 -7 -17 -7 -30 0 -19 5 -23 30 -23 19 0 30 5 30 14
0 8 3 21 6 30 5 12 -1 16 -23 16 -16 0 -33 -3 -36 -7z"/>
<path d="M12977 674 c-5 -27 8 -38 40 -32 11 2 19 14 21 31 3 24 0 27 -26 27
-24 0 -31 -5 -35 -26z"/>
<path d="M13321 625 l-13 -75 -31 26 c-26 22 -38 25 -75 21 -79 -9 -135 -92
-135 -200 0 -124 98 -173 184 -92 l26 25 -5 -30 c-3 -25 -1 -30 15 -30 18 0
23 19 52 198 18 108 35 205 37 215 4 13 -1 17 -19 17 -22 0 -25 -6 -36 -75z
m-54 -87 c61 -57 -1 -238 -82 -238 -59 0 -86 63 -65 150 24 99 92 140 147 88z"/>
<path d="M14011 625 l-13 -75 -31 26 c-26 22 -38 25 -75 21 -79 -9 -135 -92
-135 -200 0 -124 98 -173 184 -92 l26 25 -5 -30 c-3 -25 -1 -30 15 -30 18 0
23 19 52 198 18 108 35 205 37 215 4 13 -1 17 -19 17 -22 0 -25 -6 -36 -75z
m-54 -87 c61 -57 -1 -238 -82 -238 -59 0 -86 63 -65 150 24 99 92 140 147 88z"/>
<path d="M14505 688 c-8 -26 -27 -299 -21 -305 3 -4 9 -4 12 0 6 6 74 291 74
309 0 13 -60 9 -65 -4z"/>
<path d="M12346 630 c-5 -34 -10 -40 -31 -40 -18 0 -25 -5 -25 -20 0 -13 7
-20 20 -20 24 0 24 1 4 -117 -9 -51 -13 -104 -10 -117 10 -39 107 -63 120 -30
9 24 9 24 -28 24 -51 0 -56 13 -40 110 23 136 20 130 58 130 25 0 35 5 39 20
4 17 0 20 -30 20 l-36 0 6 40 c5 37 3 40 -18 40 -19 0 -24 -7 -29 -40z"/>
<path d="M7349 577 c-47 -31 -76 -79 -83 -135 -17 -125 73 -208 180 -167 37
14 94 69 83 80 -14 13 -39 5 -66 -23 -58 -59 -138 -30 -150 55 l-6 42 119 3
c118 3 119 3 122 28 2 13 -1 41 -8 63 -22 73 -121 101 -191 54z m131 -37 c11
-11 20 -31 20 -45 0 -25 -1 -25 -90 -25 -49 0 -90 2 -90 5 0 15 32 65 47 74
31 18 91 13 113 -9z"/>
<path d="M7748 584 c-15 -8 -35 -27 -43 -42 l-16 -27 5 38 c4 34 3 37 -20 37
-13 0 -24 -3 -24 -7 0 -5 -11 -73 -25 -153 -14 -80 -25 -149 -25 -153 0 -5 10
-7 22 -5 19 3 24 14 39 89 16 84 47 161 70 175 7 4 26 10 43 13 22 5 32 13 34
29 4 26 -19 29 -60 6z"/>
<path d="M7879 586 c-14 -9 -32 -29 -39 -47 -26 -61 9 -99 120 -131 40 -12 45
-17 48 -45 6 -64 -81 -86 -140 -35 -30 26 -68 33 -68 12 0 -18 70 -68 104 -74
55 -11 113 9 136 47 43 70 13 125 -81 147 -62 15 -79 25 -79 51 0 49 90 69
131 28 19 -19 49 -20 49 -1 0 5 -11 19 -25 32 -31 29 -117 38 -156 16z"/>
<path d="M8695 586 c-36 -16 -59 -41 -50 -56 10 -16 34 -12 57 10 15 14 36 20
68 20 55 0 70 -13 70 -57 l0 -33 -57 0 c-80 0 -127 -15 -157 -51 -33 -39 -33
-79 -1 -117 44 -53 109 -51 168 6 l27 26 0 -32 c0 -25 4 -32 19 -32 16 0 21
15 36 113 9 61 15 125 13 142 -7 62 -114 96 -193 61z m135 -172 c0 -29 -38
-80 -73 -99 -63 -34 -122 5 -97 65 15 36 43 49 113 49 46 1 57 -2 57 -15z"/>
<path d="M9389 577 c-52 -35 -79 -91 -79 -163 0 -47 5 -69 23 -95 27 -40 83
-62 134 -53 33 6 103 61 103 82 0 25 -31 19 -64 -14 -53 -53 -115 -44 -142 21
-30 74 -28 75 106 75 l120 0 0 40 c0 23 -7 54 -15 70 -31 61 -124 79 -186 37z
m134 -34 c8 -10 19 -30 22 -45 l7 -28 -96 0 c-53 0 -96 3 -96 8 0 11 31 55 50
69 23 19 94 16 113 -4z"/>
<path d="M9888 584 c-15 -8 -40 -36 -55 -62 -57 -97 -28 -228 57 -253 32 -10
44 -9 76 7 34 17 84 73 84 94 0 15 -35 21 -39 8 -9 -26 -60 -68 -84 -68 -59 0
-89 67 -68 147 17 62 46 93 87 93 36 0 74 -28 74 -55 0 -9 9 -15 25 -15 29 0
31 10 9 56 -28 59 -105 82 -166 48z"/>
<path d="M10190 578 c-19 -13 -44 -43 -58 -68 -19 -37 -23 -56 -20 -107 5 -75
28 -112 83 -131 155 -52 271 203 139 307 -36 29 -101 28 -144 -1z m130 -43
c20 -22 22 -31 18 -88 -6 -72 -29 -120 -65 -136 -37 -17 -62 -13 -88 14 -20
19 -25 34 -25 75 0 53 19 112 47 142 24 27 84 24 113 -7z"/>
<path d="M10565 574 c-36 -24 -37 -24 -32 -5 4 17 0 21 -17 21 -20 0 -23 -9
-45 -142 -12 -79 -24 -151 -27 -160 -4 -14 1 -18 19 -18 23 0 26 5 36 68 28
166 55 222 110 222 55 0 63 -39 36 -190 -19 -107 -19 -102 7 -98 19 3 24 14
39 98 9 52 20 104 24 115 14 36 58 75 85 75 54 0 61 -34 35 -180 -19 -110 -19
-112 7 -108 20 3 24 13 40 103 24 142 23 171 -7 200 -36 37 -84 34 -131 -7
-27 -24 -39 -29 -42 -19 -9 27 -42 51 -71 51 -15 0 -45 -12 -66 -26z"/>
<path d="M11210 578 c-19 -13 -44 -43 -58 -68 -19 -37 -23 -56 -20 -107 5 -75
28 -112 83 -131 155 -52 271 203 139 307 -36 29 -101 28 -144 -1z m130 -43
c20 -22 22 -31 18 -88 -6 -72 -29 -120 -65 -136 -37 -17 -62 -13 -88 14 -20
19 -25 34 -25 75 0 53 19 112 47 142 24 27 84 24 113 -7z"/>
<path d="M12039 577 c-52 -35 -79 -91 -79 -163 0 -47 5 -69 23 -95 27 -40 83
-62 134 -53 33 6 103 61 103 82 0 25 -31 19 -64 -14 -53 -53 -115 -44 -142 21
-30 74 -28 75 106 75 l120 0 0 40 c0 23 -7 54 -15 70 -31 61 -124 79 -186 37z
m134 -34 c8 -10 19 -30 22 -45 l7 -28 -96 0 c-53 0 -96 3 -96 8 0 11 31 55 50
69 23 19 94 16 113 -4z"/>
<path d="M13495 590 c-11 -4 -31 -19 -43 -33 -24 -25 -24 -25 -3 -32 14 -4 30
1 47 14 33 26 105 29 128 5 9 -8 16 -29 16 -45 0 -29 -1 -29 -57 -29 -119 0
-183 -38 -183 -107 0 -48 21 -78 63 -92 40 -13 90 -1 124 31 l23 21 0 -26 c0
-21 5 -27 23 -27 21 0 23 7 40 124 20 144 15 169 -38 191 -37 16 -108 19 -140
5z m129 -182 c-17 -57 -76 -108 -123 -108 -46 0 -69 71 -33 102 25 22 40 26
105 27 56 1 58 0 51 -21z"/>
<path d="M14193 586 c-74 -34 -115 -163 -79 -249 20 -48 87 -82 142 -71 38 7
104 57 104 79 0 28 -30 23 -64 -11 -43 -43 -82 -45 -120 -8 -19 20 -26 37 -26
65 l0 39 115 0 115 0 0 50 c0 71 -36 111 -106 116 -29 3 -62 -1 -81 -10z m126
-52 c12 -15 21 -35 21 -45 0 -17 -9 -19 -90 -19 -101 0 -108 7 -64 59 21 26
33 31 69 31 35 0 48 -5 64 -26z"/>
<path d="M6871 448 c-12 -79 -24 -151 -27 -160 -4 -14 1 -18 20 -18 14 0 26 3
26 8 0 4 11 72 25 152 14 80 25 148 25 153 0 4 -10 7 -23 7 -22 0 -24 -7 -46
-142z"/>
<path d="M7000 582 c0 -5 14 -76 30 -157 17 -81 30 -150 30 -152 0 -1 9 -3 20
-3 16 0 37 34 100 160 70 140 78 160 60 160 -15 0 -33 -27 -80 -120 -33 -66
-62 -120 -64 -120 -2 0 -14 54 -26 120 -21 113 -24 120 -46 120 -13 0 -24 -4
-24 -8z"/>
<path d="M8151 448 c-12 -79 -24 -151 -27 -160 -4 -14 1 -18 20 -18 14 0 26 3
26 8 0 4 11 72 25 152 14 80 25 148 25 153 0 4 -10 7 -23 7 -22 0 -24 -7 -46
-142z"/>
<path d="M11860 583 c0 -5 -14 -87 -30 -183 -32 -187 -38 -200 -92 -200 -21 0
-28 -5 -28 -20 0 -40 101 -16 125 30 8 15 26 97 40 181 14 85 27 164 30 177 5
18 1 22 -20 22 -14 0 -25 -3 -25 -7z"/>
<path d="M12511 448 c-12 -79 -24 -151 -27 -160 -4 -14 1 -18 20 -18 14 0 26
3 26 8 0 4 11 72 25 152 14 80 25 148 25 153 0 4 -10 7 -23 7 -22 0 -24 -7
-46 -142z"/>
<path d="M12640 582 c0 -5 14 -76 30 -157 17 -81 30 -150 30 -152 0 -1 9 -3
20 -3 16 0 37 34 100 160 70 140 78 160 60 160 -15 0 -33 -27 -80 -120 -33
-66 -62 -120 -64 -120 -2 0 -14 54 -26 120 -21 113 -24 120 -46 120 -13 0 -24
-4 -24 -8z"/>
<path d="M12970 588 c0 -2 -11 -68 -25 -148 -30 -177 -30 -172 -3 -168 21 3
24 15 49 161 l26 157 -24 0 c-13 0 -23 -1 -23 -2z"/>
<path d="M14446 314 c-13 -33 -6 -44 24 -44 19 0 30 5 30 14 0 8 3 21 6 30 5
12 -1 16 -24 16 -18 0 -32 -6 -36 -16z"/>
</g>
</svg>
